<?xml version="1.0" encoding="UTF-8"?>
<svg id="Layer_1" data-name="Layer 1" xmlns="http://www.w3.org/2000/svg" viewBox="0 0 256 256">
  <defs>
    <style>
      .cls-1 {
        fill: #71a1b7;
      }

      .cls-2 {
        fill: #596270;
      }

      .cls-3 {
        fill: #212f44;
      }
    </style>
  </defs>
  <rect class="cls-3" width="256" height="256"/>
  <path class="cls-2" d="M26.77,204.82c-3.14,0-4.2-2.39-4.27-4.11-.62-14.71-1.92-20.15,5.8-21.56l193.98-35.44c4.51-.16,6.87,2.45,6.86,6.6l-.1,48.06c0,4.3-2.42,6.55-6.92,6.54l-195.36-.09h0Z"/>
  <path class="cls-1" d="M92.3,154.34l-50.59,9.43c-1.1.2-3.9-.94-3.9-2.26l-.06-43.7c0-3.08,1.95-4.84,5.17-4.84l165.92.03c6.98,0,4.27,15.52,2.74,19.28l-119.28,22.05h0Z"/>
  <path class="cls-1" d="M158.86,99.46l-68.82.05c-2.36,0-3.01-3.6-2.97-5.4.21-10.97.87-21.25.06-32.06-.24-3.21,1.38-6.04,5.13-6.04l66.6-.06c3.32,0,4.77,2.37,4.81,5.32l.44,31.68c.05,3.53-1.43,6.51-5.24,6.51h0Z"/>
</svg>